{
    "asset": {
        "version": "2.0",
        "generator": "Open Asset Import Library (assimp v5.0.5eb040c7)"
    },
    "accessors": [
        {
            "bufferView": 0,
            "byteOffset": 0,
            "componentType": 5126,
            "count": 7776,
            "type": "VEC3",
            "max": [
                6.099999904632568,
                6.100491523742676,
                12.350000381469727
            ],
            "min": [
                -6.100491523742676,
                -6.100491523742676,
                -1.100000023841858
            ]
        },
        {
            "bufferView": 1,
            "byteOffset": 0,
            "componentType": 5126,
            "count": 7776,
            "type": "VEC3",
            "max": [
                1.0,
                1.0,
                0.9974465370178223
            ],
            "min": [
                -1.0,
                -1.0,
                -0.9974464774131775
            ]
        },
        {
            "bufferView": 2,
            "byteOffset": 0,
            "componentType": 5125,
            "count": 43224,
            "type": "SCALAR",
            "max": [
                7775
            ],
            "min": [
                0
            ]
        }
    ],
    "buffers": [
        {
            "byteLength": 359520,
            "uri": "result.bin"
        }
    ],
    "bufferViews": [
        {
            "buffer": 0,
            "byteOffset": 0,
            "byteLength": 93312,
            "target": 34962
        },
        {
            "buffer": 0,
            "byteOffset": 93312,
            "byteLength": 93312,
            "target": 34962
        },
        {
            "buffer": 0,
            "byteOffset": 186624,
            "byteLength": 172896,
            "target": 34963
        }
    ],
    "materials": [
        {
            "name": "Steel - Satin",
            "pbrMetallicRoughness": {
                "baseColorFactor": [
                    0.6274510025978088,
                    0.6274510025978088,
                    0.6274510025978088,
                    1.0
                ],
                "metallicFactor": 0.0,
                "roughnessFactor": 0.9717157483100891
            }
        }
    ],
    "meshes": [
        {
            "name": "Body1",
            "primitives": [
                {
                    "mode": 4,
                    "material": 0,
                    "indices": 2,
                    "attributes": {
                        "POSITION": 0,
                        "NORMAL": 1
                    }
                }
            ]
        }
    ],
    "nodes": [
        {
            "name": "RootNode",
            "children": [
                1
            ]
        },
        {
            "name": "AR-materials v1",
            "children": [
                2
            ]
        },
        {
            "name": "Body1",
            "matrix": [
                10.0,
                0.0,
                0.0,
                0.0,
                0.0,
                10.0,
                0.0,
                0.0,
                0.0,
                0.0,
                10.0,
                0.0,
                0.0,
                0.0,
                0.0,
                1.0
            ],
            "mesh": 0
        }
    ],
    "scenes": [
        {
            "nodes": [
                0
            ]
        }
    ],
    "scene": 0
}